<mxfile host="65bd71144e">
    <diagram id="pZHTG7aje_dIY4gRk1hG" name="System Flow">
        <mxGraphModel grid="1" page="0" gridSize="10" guides="1" tooltips="1" connect="1" arrows="1" fold="1" pageScale="1" pageWidth="1100" pageHeight="850" background="none" math="0" shadow="0">
            <root>
                <mxCell id="0"/>
                <mxCell id="1" parent="0"/>
                <mxCell id="rsiqmxEAYFlDEIXHPs_I-49" value="LOGIN PAGE" style="rounded=0;whiteSpace=wrap;html=1;strokeColor=default;align=center;verticalAlign=middle;fontFamily=Helvetica;fontSize=12;fontColor=default;fillColor=default;container=0;" parent="1" vertex="1">
                    <mxGeometry x="-800" y="283" width="80" height="30" as="geometry"/>
                </mxCell>
                <mxCell id="rsiqmxEAYFlDEIXHPs_I-58" style="edgeStyle=none;html=1;entryX=0.5;entryY=0;entryDx=0;entryDy=0;fontFamily=Helvetica;fontSize=12;fontColor=default;" parent="1" source="rsiqmxEAYFlDEIXHPs_I-52" target="rsiqmxEAYFlDEIXHPs_I-55" edge="1">
                    <mxGeometry relative="1" as="geometry"/>
                </mxCell>
                <mxCell id="rsiqmxEAYFlDEIXHPs_I-52" value="AUTHENTICATION" style="rounded=0;whiteSpace=wrap;html=1;strokeColor=default;align=center;verticalAlign=middle;fontFamily=Helvetica;fontSize=12;fontColor=default;fillColor=default;container=0;" parent="1" vertex="1">
                    <mxGeometry x="-825" y="373" width="130" height="30" as="geometry"/>
                </mxCell>
                <mxCell id="rsiqmxEAYFlDEIXHPs_I-62" style="edgeStyle=none;html=1;entryX=0.5;entryY=0;entryDx=0;entryDy=0;fontFamily=Helvetica;fontSize=12;fontColor=default;" parent="1" source="rsiqmxEAYFlDEIXHPs_I-53" target="rsiqmxEAYFlDEIXHPs_I-60" edge="1">
                    <mxGeometry relative="1" as="geometry"/>
                </mxCell>
                <mxCell id="rsiqmxEAYFlDEIXHPs_I-53" value="OTP TO&amp;nbsp;&lt;div&gt;STUDENT EMAIL&lt;/div&gt;" style="rounded=0;whiteSpace=wrap;html=1;strokeColor=default;align=center;verticalAlign=middle;fontFamily=Helvetica;fontSize=12;fontColor=default;fillColor=default;container=0;" parent="1" vertex="1">
                    <mxGeometry x="-825" y="570" width="130" height="30" as="geometry"/>
                </mxCell>
                <mxCell id="rsiqmxEAYFlDEIXHPs_I-59" style="edgeStyle=none;html=1;entryX=0.5;entryY=0;entryDx=0;entryDy=0;fontFamily=Helvetica;fontSize=12;fontColor=default;" parent="1" source="rsiqmxEAYFlDEIXHPs_I-55" target="rsiqmxEAYFlDEIXHPs_I-53" edge="1">
                    <mxGeometry relative="1" as="geometry"/>
                </mxCell>
                <mxCell id="rsiqmxEAYFlDEIXHPs_I-55" value="isVerified" style="rhombus;whiteSpace=wrap;html=1;strokeColor=default;align=center;verticalAlign=middle;fontFamily=Helvetica;fontSize=12;fontColor=default;fillColor=default;" parent="1" vertex="1">
                    <mxGeometry x="-800" y="439" width="80" height="80" as="geometry"/>
                </mxCell>
                <mxCell id="rsiqmxEAYFlDEIXHPs_I-56" value="" style="endArrow=classic;html=1;fontFamily=Helvetica;fontSize=12;fontColor=default;exitX=1;exitY=0.5;exitDx=0;exitDy=0;entryX=1;entryY=0.5;entryDx=0;entryDy=0;rounded=0;curved=0;" parent="1" source="rsiqmxEAYFlDEIXHPs_I-55" target="rsiqmxEAYFlDEIXHPs_I-49" edge="1">
                    <mxGeometry width="50" height="50" relative="1" as="geometry">
                        <mxPoint x="-700" y="590" as="sourcePoint"/>
                        <mxPoint x="-540" y="540" as="targetPoint"/>
                        <Array as="points">
                            <mxPoint x="-640" y="480"/>
                            <mxPoint x="-640" y="298"/>
                        </Array>
                    </mxGeometry>
                </mxCell>
                <mxCell id="rsiqmxEAYFlDEIXHPs_I-57" style="edgeStyle=none;html=1;entryX=0.497;entryY=-0.046;entryDx=0;entryDy=0;entryPerimeter=0;fontFamily=Helvetica;fontSize=12;fontColor=default;" parent="1" source="rsiqmxEAYFlDEIXHPs_I-49" target="rsiqmxEAYFlDEIXHPs_I-52" edge="1">
                    <mxGeometry relative="1" as="geometry"/>
                </mxCell>
                <mxCell id="rsiqmxEAYFlDEIXHPs_I-61" style="edgeStyle=none;html=1;entryX=0;entryY=1;entryDx=0;entryDy=0;fontFamily=Helvetica;fontSize=12;fontColor=default;rounded=0;curved=0;" parent="1" source="rsiqmxEAYFlDEIXHPs_I-60" target="rsiqmxEAYFlDEIXHPs_I-49" edge="1">
                    <mxGeometry relative="1" as="geometry">
                        <Array as="points">
                            <mxPoint x="-880" y="670"/>
                            <mxPoint x="-880" y="313"/>
                        </Array>
                    </mxGeometry>
                </mxCell>
                <mxCell id="rsiqmxEAYFlDEIXHPs_I-64" value="" style="edgeStyle=none;html=1;fontFamily=Helvetica;fontSize=12;fontColor=default;" parent="1" source="rsiqmxEAYFlDEIXHPs_I-60" target="rsiqmxEAYFlDEIXHPs_I-63" edge="1">
                    <mxGeometry relative="1" as="geometry"/>
                </mxCell>
                <mxCell id="rsiqmxEAYFlDEIXHPs_I-60" value="isCorrect" style="rhombus;whiteSpace=wrap;html=1;strokeColor=default;align=center;verticalAlign=middle;fontFamily=Helvetica;fontSize=12;fontColor=default;fillColor=default;" parent="1" vertex="1">
                    <mxGeometry x="-800" y="630" width="80" height="80" as="geometry"/>
                </mxCell>
                <mxCell id="rsiqmxEAYFlDEIXHPs_I-71" style="edgeStyle=none;html=1;exitX=0;exitY=0.5;exitDx=0;exitDy=0;entryX=0.5;entryY=1;entryDx=0;entryDy=0;fontFamily=Helvetica;fontSize=12;fontColor=default;rounded=0;curved=0;" parent="1" source="rsiqmxEAYFlDEIXHPs_I-63" target="rsiqmxEAYFlDEIXHPs_I-76" edge="1">
                    <mxGeometry relative="1" as="geometry">
                        <Array as="points">
                            <mxPoint x="-960" y="775"/>
                        </Array>
                    </mxGeometry>
                </mxCell>
                <mxCell id="rsiqmxEAYFlDEIXHPs_I-87" style="edgeStyle=none;html=1;exitX=0.5;exitY=1;exitDx=0;exitDy=0;entryX=0.5;entryY=0;entryDx=0;entryDy=0;fontFamily=Helvetica;fontSize=12;fontColor=default;" parent="1" source="rsiqmxEAYFlDEIXHPs_I-63" target="rsiqmxEAYFlDEIXHPs_I-86" edge="1">
                    <mxGeometry relative="1" as="geometry"/>
                </mxCell>
                <mxCell id="rsiqmxEAYFlDEIXHPs_I-63" value="DASHBOARD" style="whiteSpace=wrap;html=1;" parent="1" vertex="1">
                    <mxGeometry x="-820" y="760" width="120" height="30" as="geometry"/>
                </mxCell>
                <mxCell id="rsiqmxEAYFlDEIXHPs_I-69" value="" style="edgeStyle=none;html=1;fontFamily=Helvetica;fontSize=12;fontColor=default;" parent="1" source="rsiqmxEAYFlDEIXHPs_I-65" target="rsiqmxEAYFlDEIXHPs_I-68" edge="1">
                    <mxGeometry relative="1" as="geometry"/>
                </mxCell>
                <mxCell id="rsiqmxEAYFlDEIXHPs_I-65" value="VOTE SECTION" style="rounded=0;whiteSpace=wrap;html=1;strokeColor=default;align=center;verticalAlign=middle;fontFamily=Helvetica;fontSize=12;fontColor=default;fillColor=default;" parent="1" vertex="1">
                    <mxGeometry x="-821" y="973" width="120" height="60" as="geometry"/>
                </mxCell>
                <mxCell id="rsiqmxEAYFlDEIXHPs_I-73" style="edgeStyle=none;html=1;entryX=0.5;entryY=0;entryDx=0;entryDy=0;fontFamily=Helvetica;fontSize=12;fontColor=default;" parent="1" source="rsiqmxEAYFlDEIXHPs_I-68" target="rsiqmxEAYFlDEIXHPs_I-72" edge="1">
                    <mxGeometry relative="1" as="geometry"/>
                </mxCell>
                <mxCell id="rsiqmxEAYFlDEIXHPs_I-74" style="edgeStyle=none;html=1;exitX=1;exitY=0.5;exitDx=0;exitDy=0;entryX=1;entryY=0.5;entryDx=0;entryDy=0;fontFamily=Helvetica;fontSize=12;fontColor=default;rounded=0;curved=0;" parent="1" source="rsiqmxEAYFlDEIXHPs_I-68" target="rsiqmxEAYFlDEIXHPs_I-63" edge="1">
                    <mxGeometry relative="1" as="geometry">
                        <Array as="points">
                            <mxPoint x="-600" y="1123"/>
                            <mxPoint x="-600" y="775"/>
                        </Array>
                    </mxGeometry>
                </mxCell>
                <mxCell id="rsiqmxEAYFlDEIXHPs_I-68" value="hasVoted" style="rhombus;whiteSpace=wrap;html=1;rounded=0;" parent="1" vertex="1">
                    <mxGeometry x="-801" y="1083" width="80" height="80" as="geometry"/>
                </mxCell>
                <mxCell id="rsiqmxEAYFlDEIXHPs_I-72" value="HAS VOTED PAGE" style="rounded=0;whiteSpace=wrap;html=1;strokeColor=default;align=center;verticalAlign=middle;fontFamily=Helvetica;fontSize=12;fontColor=default;fillColor=default;" parent="1" vertex="1">
                    <mxGeometry x="-821" y="1203" width="120" height="60" as="geometry"/>
                </mxCell>
                <mxCell id="rsiqmxEAYFlDEIXHPs_I-77" style="edgeStyle=none;html=1;exitX=0.5;exitY=0;exitDx=0;exitDy=0;entryX=0;entryY=0.5;entryDx=0;entryDy=0;fontFamily=Helvetica;fontSize=12;fontColor=default;rounded=0;curved=0;" parent="1" source="rsiqmxEAYFlDEIXHPs_I-76" target="rsiqmxEAYFlDEIXHPs_I-49" edge="1">
                    <mxGeometry relative="1" as="geometry">
                        <Array as="points">
                            <mxPoint x="-960" y="298"/>
                        </Array>
                    </mxGeometry>
                </mxCell>
                <mxCell id="rsiqmxEAYFlDEIXHPs_I-76" value="LOGOUT" style="rounded=0;whiteSpace=wrap;html=1;strokeColor=default;align=center;verticalAlign=middle;fontFamily=Helvetica;fontSize=12;fontColor=default;fillColor=default;" parent="1" vertex="1">
                    <mxGeometry x="-1000" y="519" width="80" height="30" as="geometry"/>
                </mxCell>
                <mxCell id="rsiqmxEAYFlDEIXHPs_I-78" value="NO" style="text;html=1;align=center;verticalAlign=middle;whiteSpace=wrap;rounded=0;fontFamily=Helvetica;fontSize=12;fontColor=default;" parent="1" vertex="1">
                    <mxGeometry x="-657" y="373" width="60" height="30" as="geometry"/>
                </mxCell>
                <mxCell id="rsiqmxEAYFlDEIXHPs_I-81" value="NO" style="text;html=1;align=center;verticalAlign=middle;whiteSpace=wrap;rounded=0;fontFamily=Helvetica;fontSize=12;fontColor=default;" parent="1" vertex="1">
                    <mxGeometry x="-618" y="943" width="60" height="30" as="geometry"/>
                </mxCell>
                <mxCell id="rsiqmxEAYFlDEIXHPs_I-90" style="edgeStyle=none;html=1;exitX=0;exitY=0.5;exitDx=0;exitDy=0;entryX=0;entryY=0.5;entryDx=0;entryDy=0;fontFamily=Helvetica;fontSize=12;fontColor=default;rounded=0;curved=0;" parent="1" target="rsiqmxEAYFlDEIXHPs_I-72" edge="1">
                    <mxGeometry relative="1" as="geometry">
                        <Array as="points">
                            <mxPoint x="-881" y="860"/>
                            <mxPoint x="-881" y="1233"/>
                        </Array>
                        <mxPoint x="-801" y="860" as="sourcePoint"/>
                    </mxGeometry>
                </mxCell>
                <mxCell id="rsiqmxEAYFlDEIXHPs_I-91" style="edgeStyle=none;html=1;exitX=0.5;exitY=1;exitDx=0;exitDy=0;entryX=0.5;entryY=0;entryDx=0;entryDy=0;fontFamily=Helvetica;fontSize=12;fontColor=default;" parent="1" target="rsiqmxEAYFlDEIXHPs_I-65" edge="1">
                    <mxGeometry relative="1" as="geometry">
                        <mxPoint x="-761" y="900" as="sourcePoint"/>
                    </mxGeometry>
                </mxCell>
                <mxCell id="rsiqmxEAYFlDEIXHPs_I-86" value="HAS&amp;nbsp;&lt;div&gt;VOTED&lt;/div&gt;" style="rhombus;whiteSpace=wrap;html=1;strokeColor=default;align=center;verticalAlign=middle;fontFamily=Helvetica;fontSize=12;fontColor=default;fillColor=default;" parent="1" vertex="1">
                    <mxGeometry x="-800" y="820" width="80" height="80" as="geometry"/>
                </mxCell>
                <mxCell id="rsiqmxEAYFlDEIXHPs_I-92" value="NO" style="text;html=1;align=center;verticalAlign=middle;whiteSpace=wrap;rounded=0;fontFamily=Helvetica;fontSize=12;fontColor=default;" parent="1" vertex="1">
                    <mxGeometry x="-779" y="920" width="60" height="30" as="geometry"/>
                </mxCell>
                <mxCell id="rsiqmxEAYFlDEIXHPs_I-94" value="NO" style="text;html=1;align=center;verticalAlign=middle;whiteSpace=wrap;rounded=0;fontFamily=Helvetica;fontSize=12;fontColor=default;" parent="1" vertex="1">
                    <mxGeometry x="-922" y="450" width="60" height="30" as="geometry"/>
                </mxCell>
                <mxCell id="2" value="YES&lt;div&gt;&lt;br&gt;&lt;/div&gt;" style="text;html=1;align=center;verticalAlign=middle;whiteSpace=wrap;rounded=0;fontFamily=Helvetica;fontSize=12;fontColor=default;" parent="1" vertex="1">
                    <mxGeometry x="-940" y="988" width="60" height="30" as="geometry"/>
                </mxCell>
                <mxCell id="a3cqjSV1z18z8AviH7VN-2" value="LOGIN PAGE" style="rounded=0;whiteSpace=wrap;html=1;" parent="1" vertex="1">
                    <mxGeometry x="-520" y="268" width="120" height="60" as="geometry"/>
                </mxCell>
                <mxCell id="a3cqjSV1z18z8AviH7VN-3" value="HAS VOTED PAGE" style="rounded=0;whiteSpace=wrap;html=1;" parent="1" vertex="1">
                    <mxGeometry x="-430" y="1210" width="120" height="60" as="geometry"/>
                </mxCell>
                <mxCell id="a3cqjSV1z18z8AviH7VN-4" value="DASHBOARD" style="rounded=0;whiteSpace=wrap;html=1;" parent="1" vertex="1">
                    <mxGeometry x="-550" y="760" width="120" height="60" as="geometry"/>
                </mxCell>
                <mxCell id="a3cqjSV1z18z8AviH7VN-5" value="PUBLIC" style="rounded=0;whiteSpace=wrap;html=1;" parent="1" vertex="1">
                    <mxGeometry x="-370" y="760" width="120" height="60" as="geometry"/>
                </mxCell>
                <mxCell id="a3cqjSV1z18z8AviH7VN-6" value="VOTE" style="rounded=0;whiteSpace=wrap;html=1;" parent="1" vertex="1">
                    <mxGeometry x="-500" y="973" width="120" height="60" as="geometry"/>
                </mxCell>
                <mxCell id="a3cqjSV1z18z8AviH7VN-7" value="OTP PAGE" style="rounded=0;whiteSpace=wrap;html=1;" parent="1" vertex="1">
                    <mxGeometry x="-480" y="449" width="120" height="60" as="geometry"/>
                </mxCell>
                <mxCell id="a3cqjSV1z18z8AviH7VN-8" value="STUDENT INFO PAGE" style="rounded=0;whiteSpace=wrap;html=1;" parent="1" vertex="1">
                    <mxGeometry x="-580" y="449" width="120" height="60" as="geometry"/>
                </mxCell>
                <mxCell id="a3cqjSV1z18z8AviH7VN-9" value="YE&lt;span style=&quot;color: rgb(63, 63, 63); background-color: transparent;&quot;&gt;S&lt;/span&gt;" style="text;html=1;align=center;verticalAlign=middle;whiteSpace=wrap;rounded=0;fontFamily=Helvetica;fontSize=12;fontColor=default;" parent="1" vertex="1">
                    <mxGeometry x="-770" y="715" width="60" height="30" as="geometry"/>
                </mxCell>
                <mxCell id="a3cqjSV1z18z8AviH7VN-10" value="NO" style="text;html=1;align=center;verticalAlign=middle;whiteSpace=wrap;rounded=0;fontFamily=Helvetica;fontSize=12;fontColor=default;" parent="1" vertex="1">
                    <mxGeometry x="-870" y="640" width="60" height="30" as="geometry"/>
                </mxCell>
                <mxCell id="a3cqjSV1z18z8AviH7VN-11" value="USERS" style="rounded=0;whiteSpace=wrap;html=1;" parent="1" vertex="1">
                    <mxGeometry x="-240" y="290" width="120" height="60" as="geometry"/>
                </mxCell>
                <mxCell id="a3cqjSV1z18z8AviH7VN-12" value="CANDIDATES" style="rounded=0;whiteSpace=wrap;html=1;" parent="1" vertex="1">
                    <mxGeometry x="-100" y="290" width="120" height="60" as="geometry"/>
                </mxCell>
                <mxCell id="a3cqjSV1z18z8AviH7VN-15" value="&lt;div&gt;&lt;span style=&quot;color: rgb(63, 63, 63); background-color: transparent;&quot;&gt;NAME&lt;/span&gt;&lt;/div&gt;&lt;div&gt;REG NO(PK)&lt;/div&gt;&lt;div&gt;EMAIL&lt;/div&gt;&lt;div&gt;FACULTY&lt;/div&gt;&lt;div&gt;COURSE&lt;/div&gt;&lt;div&gt;ROLE&lt;/div&gt;" style="text;html=1;align=center;verticalAlign=middle;whiteSpace=wrap;rounded=0;" parent="1" vertex="1">
                    <mxGeometry x="-240" y="350" width="120" height="110" as="geometry"/>
                </mxCell>
                <mxCell id="a3cqjSV1z18z8AviH7VN-16" value="&lt;div style=&quot;color: rgb(63, 63, 63); scrollbar-color: rgb(226, 226, 226) rgb(251, 251, 251);&quot;&gt;&lt;span style=&quot;scrollbar-color: rgb(226, 226, 226) rgb(251, 251, 251); background-color: transparent; color: rgb(63, 63, 63);&quot;&gt;NAME&lt;/span&gt;&lt;/div&gt;&lt;div style=&quot;color: rgb(63, 63, 63); scrollbar-color: rgb(226, 226, 226) rgb(251, 251, 251);&quot;&gt;REG NO(PK)&lt;/div&gt;&lt;div style=&quot;color: rgb(63, 63, 63); scrollbar-color: rgb(226, 226, 226) rgb(251, 251, 251);&quot;&gt;EMAIL&lt;/div&gt;&lt;div style=&quot;color: rgb(63, 63, 63); scrollbar-color: rgb(226, 226, 226) rgb(251, 251, 251);&quot;&gt;FACULTY&lt;/div&gt;&lt;div style=&quot;color: rgb(63, 63, 63); scrollbar-color: rgb(226, 226, 226) rgb(251, 251, 251);&quot;&gt;COURSE&lt;/div&gt;&lt;div style=&quot;color: rgb(63, 63, 63); scrollbar-color: rgb(226, 226, 226) rgb(251, 251, 251);&quot;&gt;ROLE&lt;/div&gt;" style="text;html=1;align=center;verticalAlign=middle;whiteSpace=wrap;rounded=0;" parent="1" vertex="1">
                    <mxGeometry x="-100" y="350" width="120" height="100" as="geometry"/>
                </mxCell>
                <mxCell id="a3cqjSV1z18z8AviH7VN-17" value="VOTES" style="rounded=0;whiteSpace=wrap;html=1;" parent="1" vertex="1">
                    <mxGeometry x="30" y="290" width="120" height="60" as="geometry"/>
                </mxCell>
                <mxCell id="a3cqjSV1z18z8AviH7VN-18" value="voter REG NO (FK)&lt;div&gt;cand REG NO (FK)&lt;/div&gt;" style="text;html=1;align=center;verticalAlign=middle;whiteSpace=wrap;rounded=0;" parent="1" vertex="1">
                    <mxGeometry x="30" y="350" width="120" height="90" as="geometry"/>
                </mxCell>
                <mxCell id="a3cqjSV1z18z8AviH7VN-19" value="Vanessa" style="rounded=0;whiteSpace=wrap;html=1;" parent="1" vertex="1">
                    <mxGeometry x="470" y="-100" width="120" height="60" as="geometry"/>
                </mxCell>
                <mxCell id="a3cqjSV1z18z8AviH7VN-20" value="clement" style="rounded=0;whiteSpace=wrap;html=1;" parent="1" vertex="1">
                    <mxGeometry y="-100" width="120" height="60" as="geometry"/>
                </mxCell>
                <mxCell id="a3cqjSV1z18z8AviH7VN-21" value="ruba" style="rounded=0;whiteSpace=wrap;html=1;" parent="1" vertex="1">
                    <mxGeometry x="470" y="-180" width="120" height="60" as="geometry"/>
                </mxCell>
                <mxCell id="a3cqjSV1z18z8AviH7VN-22" value="abba" style="rounded=0;whiteSpace=wrap;html=1;" parent="1" vertex="1">
                    <mxGeometry y="-190" width="120" height="60" as="geometry"/>
                </mxCell>
                <mxCell id="a3cqjSV1z18z8AviH7VN-23" value="swabul" style="rounded=0;whiteSpace=wrap;html=1;" parent="1" vertex="1">
                    <mxGeometry x="130" y="-190" width="120" height="60" as="geometry"/>
                </mxCell>
                <mxCell id="a3cqjSV1z18z8AviH7VN-24" value="Joel" style="rounded=0;whiteSpace=wrap;html=1;" parent="1" vertex="1">
                    <mxGeometry x="130" y="-100" width="120" height="60" as="geometry"/>
                </mxCell>
                <mxCell id="a3cqjSV1z18z8AviH7VN-25" value="justine" style="rounded=0;whiteSpace=wrap;html=1;" parent="1" vertex="1">
                    <mxGeometry x="330" y="-110" width="120" height="60" as="geometry"/>
                </mxCell>
                <mxCell id="a3cqjSV1z18z8AviH7VN-28" value="" style="endArrow=none;dashed=1;html=1;" parent="1" edge="1">
                    <mxGeometry width="50" height="50" relative="1" as="geometry">
                        <mxPoint x="300" y="-30" as="sourcePoint"/>
                        <mxPoint x="610" y="-30" as="targetPoint"/>
                        <Array as="points">
                            <mxPoint x="310" y="-30"/>
                            <mxPoint x="430" y="-30"/>
                        </Array>
                    </mxGeometry>
                </mxCell>
                <mxCell id="a3cqjSV1z18z8AviH7VN-29" value="" style="endArrow=none;dashed=1;html=1;" parent="1" edge="1">
                    <mxGeometry width="50" height="50" relative="1" as="geometry">
                        <mxPoint x="300" y="-30" as="sourcePoint"/>
                        <mxPoint x="300" y="-220" as="targetPoint"/>
                    </mxGeometry>
                </mxCell>
                <mxCell id="a3cqjSV1z18z8AviH7VN-30" value="" style="endArrow=none;dashed=1;html=1;" parent="1" edge="1">
                    <mxGeometry width="50" height="50" relative="1" as="geometry">
                        <mxPoint x="300" y="-200" as="sourcePoint"/>
                        <mxPoint x="610" y="-200" as="targetPoint"/>
                        <Array as="points">
                            <mxPoint x="450" y="-200"/>
                        </Array>
                    </mxGeometry>
                </mxCell>
                <mxCell id="a3cqjSV1z18z8AviH7VN-31" value="" style="endArrow=none;dashed=1;html=1;" parent="1" edge="1">
                    <mxGeometry width="50" height="50" relative="1" as="geometry">
                        <mxPoint x="610" y="-30" as="sourcePoint"/>
                        <mxPoint x="610" y="-200" as="targetPoint"/>
                        <Array as="points">
                            <mxPoint x="610" y="-140"/>
                        </Array>
                    </mxGeometry>
                </mxCell>
                <mxCell id="a3cqjSV1z18z8AviH7VN-32" value="" style="endArrow=none;dashed=1;html=1;" parent="1" edge="1">
                    <mxGeometry width="50" height="50" relative="1" as="geometry">
                        <mxPoint x="260" y="-20" as="sourcePoint"/>
                        <mxPoint x="260" y="-20" as="targetPoint"/>
                        <Array as="points">
                            <mxPoint x="-30" y="-20"/>
                            <mxPoint x="-30" y="-200"/>
                            <mxPoint x="130" y="-200"/>
                            <mxPoint x="260" y="-200"/>
                        </Array>
                    </mxGeometry>
                </mxCell>
                <mxCell id="a3cqjSV1z18z8AviH7VN-33" value="backend" style="rounded=0;whiteSpace=wrap;html=1;" parent="1" vertex="1">
                    <mxGeometry x="60" y="-270" width="120" height="60" as="geometry"/>
                </mxCell>
                <mxCell id="a3cqjSV1z18z8AviH7VN-34" value="frontend" style="rounded=0;whiteSpace=wrap;html=1;" parent="1" vertex="1">
                    <mxGeometry x="380" y="-280" width="120" height="60" as="geometry"/>
                </mxCell>
                <mxCell id="4" value="reg no&lt;div&gt;&lt;br&gt;&lt;/div&gt;" style="text;html=1;align=center;verticalAlign=middle;whiteSpace=wrap;rounded=0;" vertex="1" parent="1">
                    <mxGeometry x="-480" y="305" width="60" height="30" as="geometry"/>
                </mxCell>
                <mxCell id="5" value="voting page" style="rounded=0;whiteSpace=wrap;html=1;" vertex="1" parent="1">
                    <mxGeometry x="-240" y="760" width="120" height="60" as="geometry"/>
                </mxCell>
            </root>
        </mxGraphModel>
    </diagram>
    <diagram id="2FE_sGPb9OaQsMFJmJ0W" name="Authentication Flow">
        <mxGraphModel dx="1210" dy="867" grid="0" gridSize="10" guides="1" tooltips="1" connect="1" arrows="1" fold="1" page="0" pageScale="1" pageWidth="850" pageHeight="1100" math="0" shadow="0">
            <root>
                <mxCell id="0"/>
                <mxCell id="1" parent="0"/>
                <mxCell id="kmZ-sMRNYnv9kZFRikgs-1" value="STUDENT&amp;nbsp;&lt;div&gt;DETAIL&amp;nbsp;&lt;/div&gt;&lt;div&gt;DATABASE&lt;/div&gt;" style="rounded=0;whiteSpace=wrap;html=1;strokeColor=default;align=center;verticalAlign=middle;fontFamily=Helvetica;fontSize=12;fontColor=default;fillColor=default;" parent="1" vertex="1">
                    <mxGeometry x="20" y="70" width="120" height="60" as="geometry"/>
                </mxCell>
                <mxCell id="kmZ-sMRNYnv9kZFRikgs-7" style="edgeStyle=none;html=1;exitX=0.5;exitY=1;exitDx=0;exitDy=0;fontFamily=Helvetica;fontSize=12;fontColor=default;" parent="1" source="kmZ-sMRNYnv9kZFRikgs-2" target="kmZ-sMRNYnv9kZFRikgs-6" edge="1">
                    <mxGeometry relative="1" as="geometry"/>
                </mxCell>
                <mxCell id="kmZ-sMRNYnv9kZFRikgs-2" value="STUDENT&amp;nbsp;&lt;div&gt;DETAILS&lt;/div&gt;" style="rounded=0;whiteSpace=wrap;html=1;strokeColor=default;align=center;verticalAlign=middle;fontFamily=Helvetica;fontSize=12;fontColor=default;fillColor=default;" parent="1" vertex="1">
                    <mxGeometry x="190" y="-30" width="120" height="60" as="geometry"/>
                </mxCell>
                <mxCell id="kmZ-sMRNYnv9kZFRikgs-9" style="edgeStyle=none;html=1;exitX=0;exitY=0.5;exitDx=0;exitDy=0;entryX=1;entryY=0.5;entryDx=0;entryDy=0;fontFamily=Helvetica;fontSize=12;fontColor=default;" parent="1" source="kmZ-sMRNYnv9kZFRikgs-6" target="kmZ-sMRNYnv9kZFRikgs-1" edge="1">
                    <mxGeometry relative="1" as="geometry"/>
                </mxCell>
                <mxCell id="kmZ-sMRNYnv9kZFRikgs-10" style="edgeStyle=none;html=1;exitX=0.5;exitY=1;exitDx=0;exitDy=0;fontFamily=Helvetica;fontSize=12;fontColor=default;" parent="1" source="kmZ-sMRNYnv9kZFRikgs-6" target="kmZ-sMRNYnv9kZFRikgs-11" edge="1">
                    <mxGeometry relative="1" as="geometry">
                        <mxPoint x="249.92592592592587" y="200" as="targetPoint"/>
                    </mxGeometry>
                </mxCell>
                <mxCell id="kmZ-sMRNYnv9kZFRikgs-6" value="isStudent" style="rhombus;whiteSpace=wrap;html=1;strokeColor=default;align=center;verticalAlign=middle;fontFamily=Helvetica;fontSize=12;fontColor=default;fillColor=default;" parent="1" vertex="1">
                    <mxGeometry x="210" y="60" width="80" height="80" as="geometry"/>
                </mxCell>
                <mxCell id="kmZ-sMRNYnv9kZFRikgs-11" value="SEND OTP TO STUDENT EMAIL" style="rounded=0;whiteSpace=wrap;html=1;strokeColor=default;align=center;verticalAlign=middle;fontFamily=Helvetica;fontSize=12;fontColor=default;fillColor=default;" parent="1" vertex="1">
                    <mxGeometry x="189.99592592592586" y="190" width="120" height="60" as="geometry"/>
                </mxCell>
                <mxCell id="kmZ-sMRNYnv9kZFRikgs-12" value="yes" style="text;html=1;align=center;verticalAlign=middle;whiteSpace=wrap;rounded=0;fontFamily=Helvetica;fontSize=12;fontColor=default;" parent="1" vertex="1">
                    <mxGeometry x="235" y="143" width="60" height="30" as="geometry"/>
                </mxCell>
            </root>
        </mxGraphModel>
    </diagram>
    <diagram id="ZvTMpAQ_krViqLBtN_t6" name="Page-3">
        <mxGraphModel grid="1" page="1" gridSize="10" guides="1" tooltips="1" connect="1" arrows="1" fold="1" pageScale="1" pageWidth="1100" pageHeight="850" math="0" shadow="0">
            <root>
                <mxCell id="0"/>
                <mxCell id="1" parent="0"/>
                <mxCell id="4ExmmsArjvEBLqKxLuJv-1" value="login page" style="text;html=1;align=center;verticalAlign=middle;whiteSpace=wrap;rounded=0;" vertex="1" parent="1">
                    <mxGeometry x="320" y="150" width="60" height="30" as="geometry"/>
                </mxCell>
                <mxCell id="4ExmmsArjvEBLqKxLuJv-2" value="" style="rounded=0;whiteSpace=wrap;html=1;" vertex="1" parent="1">
                    <mxGeometry x="240" y="190" width="260" height="410" as="geometry"/>
                </mxCell>
                <mxCell id="4ExmmsArjvEBLqKxLuJv-4" value="" style="rounded=0;whiteSpace=wrap;html=1;" vertex="1" parent="1">
                    <mxGeometry x="280" y="340" width="170" height="160" as="geometry"/>
                </mxCell>
                <mxCell id="4ExmmsArjvEBLqKxLuJv-5" value="" style="rounded=1;whiteSpace=wrap;html=1;" vertex="1" parent="1">
                    <mxGeometry x="305" y="460" width="120" height="30" as="geometry"/>
                </mxCell>
                <mxCell id="4ExmmsArjvEBLqKxLuJv-6" value="" style="rounded=1;whiteSpace=wrap;html=1;" vertex="1" parent="1">
                    <mxGeometry x="305" y="405" width="120" height="30" as="geometry"/>
                </mxCell>
                <mxCell id="4ExmmsArjvEBLqKxLuJv-7" value="" style="rounded=0;whiteSpace=wrap;html=1;" vertex="1" parent="1">
                    <mxGeometry x="560" y="240" width="490" height="230" as="geometry"/>
                </mxCell>
                <mxCell id="4ExmmsArjvEBLqKxLuJv-8" value="" style="rounded=0;whiteSpace=wrap;html=1;" vertex="1" parent="1">
                    <mxGeometry x="745" y="260" width="120" height="190" as="geometry"/>
                </mxCell>
                <mxCell id="4ExmmsArjvEBLqKxLuJv-9" value="" style="rounded=1;whiteSpace=wrap;html=1;" vertex="1" parent="1">
                    <mxGeometry x="757.5" y="370" width="95" height="25" as="geometry"/>
                </mxCell>
                <mxCell id="4ExmmsArjvEBLqKxLuJv-10" value="" style="rounded=0;whiteSpace=wrap;html=1;" vertex="1" parent="1">
                    <mxGeometry x="757.5" y="340" width="100" height="20" as="geometry"/>
                </mxCell>
                <mxCell id="4ExmmsArjvEBLqKxLuJv-11" value="Login" style="text;html=1;align=center;verticalAlign=middle;whiteSpace=wrap;rounded=0;" vertex="1" parent="1">
                    <mxGeometry x="335" y="460" width="60" height="30" as="geometry"/>
                </mxCell>
                <mxCell id="4ExmmsArjvEBLqKxLuJv-12" value="Reg no input" style="text;html=1;align=center;verticalAlign=middle;whiteSpace=wrap;rounded=0;" vertex="1" parent="1">
                    <mxGeometry x="335" y="405" width="60" height="30" as="geometry"/>
                </mxCell>
                <mxCell id="4ExmmsArjvEBLqKxLuJv-13" value="Reg no input" style="text;html=1;align=center;verticalAlign=middle;whiteSpace=wrap;rounded=0;" vertex="1" parent="1">
                    <mxGeometry x="762.5" y="335" width="90" height="30" as="geometry"/>
                </mxCell>
                <mxCell id="4ExmmsArjvEBLqKxLuJv-14" value="Login" style="text;html=1;align=center;verticalAlign=middle;whiteSpace=wrap;rounded=0;" vertex="1" parent="1">
                    <mxGeometry x="770" y="367.5" width="60" height="30" as="geometry"/>
                </mxCell>
                <mxCell id="qJi4Pq_dr--vxFzF_sSr-2" value="" style="rounded=0;whiteSpace=wrap;html=1;" vertex="1" parent="1">
                    <mxGeometry x="1310" y="120" width="320" height="500" as="geometry"/>
                </mxCell>
                <mxCell id="qJi4Pq_dr--vxFzF_sSr-3" value="" style="rounded=0;whiteSpace=wrap;html=1;" vertex="1" parent="1">
                    <mxGeometry x="1330" y="135" width="280" height="445" as="geometry"/>
                </mxCell>
                <mxCell id="qJi4Pq_dr--vxFzF_sSr-4" value="" style="rounded=1;whiteSpace=wrap;html=1;" vertex="1" parent="1">
                    <mxGeometry x="1375" y="510" width="190" height="45" as="geometry"/>
                </mxCell>
                <mxCell id="qJi4Pq_dr--vxFzF_sSr-5" value="continue" style="text;html=1;align=center;verticalAlign=middle;whiteSpace=wrap;rounded=0;" vertex="1" parent="1">
                    <mxGeometry x="1440" y="517.5" width="60" height="30" as="geometry"/>
                </mxCell>
                <mxCell id="qJi4Pq_dr--vxFzF_sSr-6" value="&lt;h1 style=&quot;margin-top: 0px;&quot;&gt;Heading&lt;/h1&gt;&lt;p&gt;name&lt;/p&gt;&lt;p&gt;reg no&lt;/p&gt;&lt;p&gt;student email&lt;/p&gt;&lt;p&gt;contact&lt;/p&gt;&lt;p&gt;an otp has been sent to your student email&lt;br&gt;abd***************gi@studmc.kiu.ac.ug&lt;/p&gt;" style="text;html=1;whiteSpace=wrap;overflow=hidden;rounded=0;" vertex="1" parent="1">
                    <mxGeometry x="1385" y="280" width="180" height="205" as="geometry"/>
                </mxCell>
                <mxCell id="qJi4Pq_dr--vxFzF_sSr-8" value="" style="ellipse;whiteSpace=wrap;html=1;aspect=fixed;" vertex="1" parent="1">
                    <mxGeometry x="1430" y="190" width="80" height="80" as="geometry"/>
                </mxCell>
                <mxCell id="qJi4Pq_dr--vxFzF_sSr-9" value="" style="rounded=0;whiteSpace=wrap;html=1;" vertex="1" parent="1">
                    <mxGeometry x="1740" y="110" width="970" height="510" as="geometry"/>
                </mxCell>
                <mxCell id="qJi4Pq_dr--vxFzF_sSr-10" value="" style="rounded=0;whiteSpace=wrap;html=1;" vertex="1" parent="1">
                    <mxGeometry x="2040" y="150" width="310" height="430" as="geometry"/>
                </mxCell>
                <mxCell id="qJi4Pq_dr--vxFzF_sSr-11" value="" style="ellipse;whiteSpace=wrap;html=1;aspect=fixed;" vertex="1" parent="1">
                    <mxGeometry x="2150" y="180" width="80" height="80" as="geometry"/>
                </mxCell>
                <mxCell id="qJi4Pq_dr--vxFzF_sSr-12" value="&lt;h1 style=&quot;margin-top: 0px;&quot;&gt;Heading&lt;/h1&gt;&lt;p&gt;name&lt;/p&gt;&lt;p&gt;reg no&lt;/p&gt;&lt;p&gt;student email&lt;/p&gt;&lt;p&gt;contact&lt;/p&gt;&lt;p&gt;an otp has been sent to your student email&lt;br&gt;abd***************gi@studmc.kiu.ac.ug&lt;/p&gt;" style="text;html=1;whiteSpace=wrap;overflow=hidden;rounded=0;" vertex="1" parent="1">
                    <mxGeometry x="2130" y="267.5" width="180" height="205" as="geometry"/>
                </mxCell>
                <mxCell id="qJi4Pq_dr--vxFzF_sSr-13" value="continue" style="text;html=1;align=center;verticalAlign=middle;whiteSpace=wrap;rounded=0;" vertex="1" parent="1">
                    <mxGeometry x="2165" y="535" width="60" height="12.5" as="geometry"/>
                </mxCell>
                <mxCell id="qJi4Pq_dr--vxFzF_sSr-16" value="" style="rounded=1;whiteSpace=wrap;html=1;" vertex="1" parent="1">
                    <mxGeometry x="2110" y="518.75" width="190" height="45" as="geometry"/>
                </mxCell>
                <mxCell id="qJi4Pq_dr--vxFzF_sSr-17" value="student detail page" style="text;html=1;align=center;verticalAlign=middle;whiteSpace=wrap;rounded=0;" vertex="1" parent="1">
                    <mxGeometry x="1650" y="20" width="220" height="30" as="geometry"/>
                </mxCell>
                <mxCell id="tAkB9QP9fLxrNlGLkoQ0-1" value="" style="rounded=0;whiteSpace=wrap;html=1;" vertex="1" parent="1">
                    <mxGeometry x="230" y="920" width="350" height="650" as="geometry"/>
                </mxCell>
                <mxCell id="tAkB9QP9fLxrNlGLkoQ0-2" value="Text" style="text;html=1;align=center;verticalAlign=middle;whiteSpace=wrap;rounded=0;" vertex="1" parent="1">
                    <mxGeometry x="460" y="940" width="60" height="30" as="geometry"/>
                </mxCell>
                <mxCell id="tAkB9QP9fLxrNlGLkoQ0-3" value="" style="ellipse;whiteSpace=wrap;html=1;aspect=fixed;" vertex="1" parent="1">
                    <mxGeometry x="535" y="940" width="30" height="30" as="geometry"/>
                </mxCell>
                <mxCell id="tAkB9QP9fLxrNlGLkoQ0-4" value="" style="ellipse;whiteSpace=wrap;html=1;aspect=fixed;" vertex="1" parent="1">
                    <mxGeometry x="255" y="940" width="50" height="50" as="geometry"/>
                </mxCell>
                <mxCell id="tAkB9QP9fLxrNlGLkoQ0-6" value="&lt;h1 style=&quot;margin-top: 0px;&quot;&gt;GUILD PRESIDENT ELECTIONS 2025&lt;/h1&gt;" style="text;html=1;whiteSpace=wrap;overflow=hidden;rounded=0;" vertex="1" parent="1">
                    <mxGeometry x="275" y="1020" width="265" height="80" as="geometry"/>
                </mxCell>
                <mxCell id="tAkB9QP9fLxrNlGLkoQ0-12" value="MAKE A VOTE" style="rounded=1;whiteSpace=wrap;html=1;" vertex="1" parent="1">
                    <mxGeometry x="255" y="1245" width="280" height="60" as="geometry"/>
                </mxCell>
                <mxCell id="tAkB9QP9fLxrNlGLkoQ0-13" value="" style="rounded=0;whiteSpace=wrap;html=1;" vertex="1" parent="1">
                    <mxGeometry x="747.5" y="930" width="1362.5" height="640" as="geometry"/>
                </mxCell>
                <mxCell id="tAkB9QP9fLxrNlGLkoQ0-14" value="" style="ellipse;whiteSpace=wrap;html=1;aspect=fixed;" vertex="1" parent="1">
                    <mxGeometry x="1980" y="970" width="80" height="80" as="geometry"/>
                </mxCell>
                <mxCell id="tAkB9QP9fLxrNlGLkoQ0-15" value="Text" style="text;html=1;align=center;verticalAlign=middle;whiteSpace=wrap;rounded=0;" vertex="1" parent="1">
                    <mxGeometry x="1900" y="995" width="60" height="30" as="geometry"/>
                </mxCell>
                <mxCell id="tAkB9QP9fLxrNlGLkoQ0-16" value="" style="ellipse;whiteSpace=wrap;html=1;aspect=fixed;" vertex="1" parent="1">
                    <mxGeometry x="785" y="970" width="80" height="80" as="geometry"/>
                </mxCell>
                <mxCell id="tAkB9QP9fLxrNlGLkoQ0-18" value="&lt;h1 style=&quot;margin-top: 0px;&quot;&gt;GUILD PRESIDENT ELECTIONS 2025&lt;/h1&gt;" style="text;html=1;whiteSpace=wrap;overflow=hidden;rounded=0;" vertex="1" parent="1">
                    <mxGeometry x="1140" y="1040" width="795" height="80" as="geometry"/>
                </mxCell>
                <mxCell id="5VoZbwqLYC_r63rDYFZQ-37" style="edgeStyle=none;html=1;" edge="1" parent="1" target="tAkB9QP9fLxrNlGLkoQ0-13">
                    <mxGeometry relative="1" as="geometry">
                        <mxPoint x="870" y="1216.3909774436092" as="sourcePoint"/>
                    </mxGeometry>
                </mxCell>
                <mxCell id="tAkB9QP9fLxrNlGLkoQ0-27" value="VIEW VOTES" style="rounded=1;whiteSpace=wrap;html=1;" vertex="1" parent="1">
                    <mxGeometry x="1223.75" y="1200" width="410" height="60" as="geometry"/>
                </mxCell>
                <mxCell id="5VoZbwqLYC_r63rDYFZQ-2" value="&lt;h1 style=&quot;margin-top: 0px;&quot;&gt;DASHBOARD&lt;/h1&gt;&lt;div&gt;&lt;br&gt;&lt;/div&gt;" style="text;html=1;whiteSpace=wrap;overflow=hidden;rounded=0;" vertex="1" parent="1">
                    <mxGeometry x="705" y="830" width="795" height="80" as="geometry"/>
                </mxCell>
                <mxCell id="5VoZbwqLYC_r63rDYFZQ-3" value="" style="rounded=0;whiteSpace=wrap;html=1;" vertex="1" parent="1">
                    <mxGeometry x="230" y="1760" width="385" height="570" as="geometry"/>
                </mxCell>
                <mxCell id="5VoZbwqLYC_r63rDYFZQ-4" value="" style="ellipse;whiteSpace=wrap;html=1;aspect=fixed;" vertex="1" parent="1">
                    <mxGeometry x="540" y="1780" width="50" height="50" as="geometry"/>
                </mxCell>
                <mxCell id="5VoZbwqLYC_r63rDYFZQ-5" value="Text" style="text;html=1;align=center;verticalAlign=middle;whiteSpace=wrap;rounded=0;" vertex="1" parent="1">
                    <mxGeometry x="475" y="1790" width="60" height="30" as="geometry"/>
                </mxCell>
                <mxCell id="5VoZbwqLYC_r63rDYFZQ-6" value="" style="ellipse;whiteSpace=wrap;html=1;aspect=fixed;" vertex="1" parent="1">
                    <mxGeometry x="255" y="1780" width="50" height="50" as="geometry"/>
                </mxCell>
                <mxCell id="5VoZbwqLYC_r63rDYFZQ-7" value="&lt;h1 style=&quot;margin-top: 0px;&quot;&gt;CANDIDATES&lt;/h1&gt;" style="text;html=1;whiteSpace=wrap;overflow=hidden;rounded=0;" vertex="1" parent="1">
                    <mxGeometry x="340" y="1850" width="180" height="50" as="geometry"/>
                </mxCell>
                <mxCell id="5VoZbwqLYC_r63rDYFZQ-8" value="" style="rounded=0;whiteSpace=wrap;html=1;" vertex="1" parent="1">
                    <mxGeometry x="280" y="1930" width="90" height="90" as="geometry"/>
                </mxCell>
                <mxCell id="5VoZbwqLYC_r63rDYFZQ-9" value="" style="rounded=0;whiteSpace=wrap;html=1;" vertex="1" parent="1">
                    <mxGeometry x="435" y="1930" width="90" height="90" as="geometry"/>
                </mxCell>
                <mxCell id="5VoZbwqLYC_r63rDYFZQ-11" value="" style="rounded=0;whiteSpace=wrap;html=1;" vertex="1" parent="1">
                    <mxGeometry x="435" y="2140" width="90" height="90" as="geometry"/>
                </mxCell>
                <mxCell id="5VoZbwqLYC_r63rDYFZQ-12" value="" style="rounded=0;whiteSpace=wrap;html=1;" vertex="1" parent="1">
                    <mxGeometry x="280" y="2035" width="90" height="90" as="geometry"/>
                </mxCell>
                <mxCell id="5VoZbwqLYC_r63rDYFZQ-13" value="" style="rounded=0;whiteSpace=wrap;html=1;" vertex="1" parent="1">
                    <mxGeometry x="435" y="2035" width="90" height="90" as="geometry"/>
                </mxCell>
                <mxCell id="5VoZbwqLYC_r63rDYFZQ-14" value="" style="rounded=0;whiteSpace=wrap;html=1;" vertex="1" parent="1">
                    <mxGeometry x="280" y="2140" width="90" height="90" as="geometry"/>
                </mxCell>
                <mxCell id="5VoZbwqLYC_r63rDYFZQ-15" value="VOTE" style="rounded=1;whiteSpace=wrap;html=1;" vertex="1" parent="1">
                    <mxGeometry x="275" y="2270" width="265" height="40" as="geometry"/>
                </mxCell>
                <mxCell id="5VoZbwqLYC_r63rDYFZQ-16" value="PHOTO&lt;div&gt;NAME&lt;/div&gt;" style="text;html=1;align=center;verticalAlign=middle;whiteSpace=wrap;rounded=0;" vertex="1" parent="1">
                    <mxGeometry x="295" y="1960" width="60" height="30" as="geometry"/>
                </mxCell>
                <mxCell id="5VoZbwqLYC_r63rDYFZQ-17" value="" style="rounded=0;whiteSpace=wrap;html=1;" vertex="1" parent="1">
                    <mxGeometry x="700" y="1770" width="1080" height="570" as="geometry"/>
                </mxCell>
                <mxCell id="5VoZbwqLYC_r63rDYFZQ-18" value="" style="whiteSpace=wrap;html=1;aspect=fixed;" vertex="1" parent="1">
                    <mxGeometry x="980" y="1960" width="80" height="80" as="geometry"/>
                </mxCell>
                <mxCell id="5VoZbwqLYC_r63rDYFZQ-19" value="" style="whiteSpace=wrap;html=1;aspect=fixed;" vertex="1" parent="1">
                    <mxGeometry x="1250" y="2060" width="80" height="80" as="geometry"/>
                </mxCell>
                <mxCell id="5VoZbwqLYC_r63rDYFZQ-20" value="" style="whiteSpace=wrap;html=1;aspect=fixed;" vertex="1" parent="1">
                    <mxGeometry x="1070" y="2070" width="80" height="80" as="geometry"/>
                </mxCell>
                <mxCell id="5VoZbwqLYC_r63rDYFZQ-21" value="" style="whiteSpace=wrap;html=1;aspect=fixed;" vertex="1" parent="1">
                    <mxGeometry x="1330" y="1960" width="80" height="80" as="geometry"/>
                </mxCell>
                <mxCell id="5VoZbwqLYC_r63rDYFZQ-22" value="" style="whiteSpace=wrap;html=1;aspect=fixed;" vertex="1" parent="1">
                    <mxGeometry x="1200" y="1960" width="80" height="80" as="geometry"/>
                </mxCell>
                <mxCell id="5VoZbwqLYC_r63rDYFZQ-23" value="" style="whiteSpace=wrap;html=1;aspect=fixed;" vertex="1" parent="1">
                    <mxGeometry x="1090" y="1960" width="80" height="80" as="geometry"/>
                </mxCell>
                <mxCell id="5VoZbwqLYC_r63rDYFZQ-25" value="" style="ellipse;whiteSpace=wrap;html=1;aspect=fixed;" vertex="1" parent="1">
                    <mxGeometry x="1640" y="1800" width="80" height="80" as="geometry"/>
                </mxCell>
                <mxCell id="5VoZbwqLYC_r63rDYFZQ-26" value="Text" style="text;html=1;align=center;verticalAlign=middle;whiteSpace=wrap;rounded=0;" vertex="1" parent="1">
                    <mxGeometry x="1570" y="1840" width="60" height="30" as="geometry"/>
                </mxCell>
                <mxCell id="5VoZbwqLYC_r63rDYFZQ-27" value="" style="ellipse;whiteSpace=wrap;html=1;aspect=fixed;" vertex="1" parent="1">
                    <mxGeometry x="740" y="1815" width="80" height="80" as="geometry"/>
                </mxCell>
                <mxCell id="5VoZbwqLYC_r63rDYFZQ-28" value="VOTE" style="rounded=1;whiteSpace=wrap;html=1;" vertex="1" parent="1">
                    <mxGeometry x="1140" y="2210" width="120" height="60" as="geometry"/>
                </mxCell>
                <mxCell id="5VoZbwqLYC_r63rDYFZQ-29" value="" style="rounded=0;whiteSpace=wrap;html=1;" vertex="1" parent="1">
                    <mxGeometry x="2280" y="1730" width="580" height="810" as="geometry"/>
                </mxCell>
                <mxCell id="5VoZbwqLYC_r63rDYFZQ-30" value="" style="ellipse;whiteSpace=wrap;html=1;aspect=fixed;" vertex="1" parent="1">
                    <mxGeometry x="2310" y="1760" width="80" height="80" as="geometry"/>
                </mxCell>
                <mxCell id="5VoZbwqLYC_r63rDYFZQ-31" value="" style="ellipse;whiteSpace=wrap;html=1;aspect=fixed;" vertex="1" parent="1">
                    <mxGeometry x="2750" y="1750" width="80" height="80" as="geometry"/>
                </mxCell>
                <mxCell id="5VoZbwqLYC_r63rDYFZQ-32" value="Text" style="text;html=1;align=center;verticalAlign=middle;whiteSpace=wrap;rounded=0;" vertex="1" parent="1">
                    <mxGeometry x="2670" y="1780" width="60" height="30" as="geometry"/>
                </mxCell>
                <mxCell id="5VoZbwqLYC_r63rDYFZQ-33" value="" style="rounded=0;whiteSpace=wrap;html=1;" vertex="1" parent="1">
                    <mxGeometry x="2360" y="1890" width="450" height="290" as="geometry"/>
                </mxCell>
                <mxCell id="5VoZbwqLYC_r63rDYFZQ-34" value="&lt;h1 style=&quot;margin-top: 0px;&quot;&gt;VOTE SUCCESSFULL&lt;/h1&gt;&lt;p&gt;Lorem ipsum dolor sit amet, consectetur adipisicing elit, sed do eiusmod tempor incididunt ut labore et dolore magna aliqua.&lt;/p&gt;" style="text;html=1;whiteSpace=wrap;overflow=hidden;rounded=0;" vertex="1" parent="1">
                    <mxGeometry x="2410" y="1915" width="360" height="135" as="geometry"/>
                </mxCell>
                <mxCell id="5VoZbwqLYC_r63rDYFZQ-35" value="DASHBOARD" style="rounded=1;whiteSpace=wrap;html=1;" vertex="1" parent="1">
                    <mxGeometry x="2410" y="2035" width="340" height="55" as="geometry"/>
                </mxCell>
                <mxCell id="5VoZbwqLYC_r63rDYFZQ-36" value="VEIW VOTES" style="rounded=1;whiteSpace=wrap;html=1;" vertex="1" parent="1">
                    <mxGeometry x="260" y="1130" width="280" height="60" as="geometry"/>
                </mxCell>
                <mxCell id="5VoZbwqLYC_r63rDYFZQ-40" value="MAKE YOUR VOTE" style="rounded=1;whiteSpace=wrap;html=1;" vertex="1" parent="1">
                    <mxGeometry x="1223.75" y="1270" width="410" height="60" as="geometry"/>
                </mxCell>
                <mxCell id="5VoZbwqLYC_r63rDYFZQ-41" value="" style="rounded=0;whiteSpace=wrap;html=1;" vertex="1" parent="1">
                    <mxGeometry x="2680" y="910" width="510" height="700" as="geometry"/>
                </mxCell>
                <mxCell id="5VoZbwqLYC_r63rDYFZQ-42" value="" style="ellipse;whiteSpace=wrap;html=1;aspect=fixed;" vertex="1" parent="1">
                    <mxGeometry x="3100" y="930" width="60" height="60" as="geometry"/>
                </mxCell>
                <mxCell id="5VoZbwqLYC_r63rDYFZQ-43" value="Text" style="text;html=1;align=center;verticalAlign=middle;whiteSpace=wrap;rounded=0;" vertex="1" parent="1">
                    <mxGeometry x="3030" y="950" width="60" height="30" as="geometry"/>
                </mxCell>
                <mxCell id="5VoZbwqLYC_r63rDYFZQ-44" value="" style="ellipse;whiteSpace=wrap;html=1;aspect=fixed;" vertex="1" parent="1">
                    <mxGeometry x="2710" y="955" width="40" height="40" as="geometry"/>
                </mxCell>
                <mxCell id="5VoZbwqLYC_r63rDYFZQ-45" value="&lt;h1 style=&quot;margin-top: 0px;&quot;&gt;KIU GUILD PRESIDENT REAL TIME SCROES&lt;/h1&gt;" style="text;html=1;whiteSpace=wrap;overflow=hidden;rounded=0;" vertex="1" parent="1">
                    <mxGeometry x="2780" y="1030" width="340" height="120" as="geometry"/>
                </mxCell>
                <mxCell id="5VoZbwqLYC_r63rDYFZQ-46" value="" style="whiteSpace=wrap;html=1;aspect=fixed;" vertex="1" parent="1">
                    <mxGeometry x="2740" y="1150" width="120" height="120" as="geometry"/>
                </mxCell>
                <mxCell id="5VoZbwqLYC_r63rDYFZQ-47" value="256" style="text;html=1;align=center;verticalAlign=middle;whiteSpace=wrap;rounded=0;" vertex="1" parent="1">
                    <mxGeometry x="2770" y="1235" width="60" height="30" as="geometry"/>
                </mxCell>
                <mxCell id="5VoZbwqLYC_r63rDYFZQ-49" value="" style="whiteSpace=wrap;html=1;aspect=fixed;" vertex="1" parent="1">
                    <mxGeometry x="2880" y="1150" width="120" height="120" as="geometry"/>
                </mxCell>
                <mxCell id="5VoZbwqLYC_r63rDYFZQ-50" value="" style="whiteSpace=wrap;html=1;aspect=fixed;" vertex="1" parent="1">
                    <mxGeometry x="3040" y="1150" width="120" height="120" as="geometry"/>
                </mxCell>
                <mxCell id="5VoZbwqLYC_r63rDYFZQ-51" value="234" style="text;html=1;align=center;verticalAlign=middle;whiteSpace=wrap;rounded=0;" vertex="1" parent="1">
                    <mxGeometry x="3070" y="1235" width="60" height="30" as="geometry"/>
                </mxCell>
                <mxCell id="5VoZbwqLYC_r63rDYFZQ-52" value="12" style="text;html=1;align=center;verticalAlign=middle;whiteSpace=wrap;rounded=0;" vertex="1" parent="1">
                    <mxGeometry x="2905" y="1240" width="60" height="30" as="geometry"/>
                </mxCell>
                <mxCell id="5VoZbwqLYC_r63rDYFZQ-53" value="MAKE A VOTE" style="rounded=1;whiteSpace=wrap;html=1;" vertex="1" parent="1">
                    <mxGeometry x="2875" y="1330" width="120" height="60" as="geometry"/>
                </mxCell>
                <mxCell id="5VoZbwqLYC_r63rDYFZQ-55" style="edgeStyle=none;html=1;" edge="1" parent="1" source="5VoZbwqLYC_r63rDYFZQ-54">
                    <mxGeometry relative="1" as="geometry">
                        <mxPoint x="4480" y="1270" as="targetPoint"/>
                    </mxGeometry>
                </mxCell>
                <mxCell id="5VoZbwqLYC_r63rDYFZQ-54" value="" style="rounded=0;whiteSpace=wrap;html=1;" vertex="1" parent="1">
                    <mxGeometry x="3380" y="940" width="1160" height="700" as="geometry"/>
                </mxCell>
                <mxCell id="5VoZbwqLYC_r63rDYFZQ-56" value="&lt;h1 style=&quot;margin-top: 0px;&quot;&gt;KIU GUILD PRESIDENT REAL TIME SCROES&lt;/h1&gt;" style="text;html=1;whiteSpace=wrap;overflow=hidden;rounded=0;" vertex="1" parent="1">
                    <mxGeometry x="3730" y="995" width="340" height="120" as="geometry"/>
                </mxCell>
                <mxCell id="5VoZbwqLYC_r63rDYFZQ-58" value="" style="whiteSpace=wrap;html=1;aspect=fixed;" vertex="1" parent="1">
                    <mxGeometry x="3720" y="1170" width="120" height="120" as="geometry"/>
                </mxCell>
                <mxCell id="5VoZbwqLYC_r63rDYFZQ-60" value="256" style="text;html=1;align=center;verticalAlign=middle;whiteSpace=wrap;rounded=0;" vertex="1" parent="1">
                    <mxGeometry x="3750" y="1260" width="60" height="30" as="geometry"/>
                </mxCell>
                <mxCell id="5VoZbwqLYC_r63rDYFZQ-61" value="" style="whiteSpace=wrap;html=1;aspect=fixed;" vertex="1" parent="1">
                    <mxGeometry x="3890" y="1170" width="120" height="120" as="geometry"/>
                </mxCell>
                <mxCell id="5VoZbwqLYC_r63rDYFZQ-62" value="233" style="text;html=1;align=center;verticalAlign=middle;whiteSpace=wrap;rounded=0;" vertex="1" parent="1">
                    <mxGeometry x="3930" y="1260" width="60" height="30" as="geometry"/>
                </mxCell>
                <mxCell id="5VoZbwqLYC_r63rDYFZQ-63" value="MAKE A VOTE" style="rounded=1;whiteSpace=wrap;html=1;" vertex="1" parent="1">
                    <mxGeometry x="3940" y="1350" width="120" height="60" as="geometry"/>
                </mxCell>
            </root>
        </mxGraphModel>
    </diagram>
    <diagram id="-mfE_bB2AjOJOB1w77bT" name="Page-4">
        <mxGraphModel dx="1631" dy="718" grid="1" gridSize="10" guides="1" tooltips="1" connect="1" arrows="1" fold="1" page="1" pageScale="1" pageWidth="1100" pageHeight="850" math="0" shadow="0">
            <root>
                <mxCell id="0"/>
                <mxCell id="1" parent="0"/>
                <mxCell id="T2gZc5KsML9cMAAnWxb7-1" value="" style="rounded=0;whiteSpace=wrap;html=1;" vertex="1" parent="1">
                    <mxGeometry x="30" y="10" width="940" height="450" as="geometry"/>
                </mxCell>
                <mxCell id="T2gZc5KsML9cMAAnWxb7-2" value="" style="rounded=0;whiteSpace=wrap;html=1;" vertex="1" parent="1">
                    <mxGeometry x="40" y="10" width="190" height="450" as="geometry"/>
                </mxCell>
                <mxCell id="T2gZc5KsML9cMAAnWxb7-4" value="&lt;h1 style=&quot;margin-top: 0px;&quot;&gt;KIU GUILD PRESIDENT ELECTIONS 2025&lt;/h1&gt;&lt;p&gt;&lt;br&gt;&lt;/p&gt;" style="text;html=1;whiteSpace=wrap;overflow=hidden;rounded=0;" vertex="1" parent="1">
                    <mxGeometry x="300" y="30" width="580" height="50" as="geometry"/>
                </mxCell>
                <mxCell id="T2gZc5KsML9cMAAnWxb7-5" value="" style="whiteSpace=wrap;html=1;aspect=fixed;" vertex="1" parent="1">
                    <mxGeometry x="300" y="90" width="80" height="80" as="geometry"/>
                </mxCell>
                <mxCell id="T2gZc5KsML9cMAAnWxb7-6" value="" style="whiteSpace=wrap;html=1;aspect=fixed;" vertex="1" parent="1">
                    <mxGeometry x="430" y="90" width="80" height="80" as="geometry"/>
                </mxCell>
                <mxCell id="T2gZc5KsML9cMAAnWxb7-7" value="" style="whiteSpace=wrap;html=1;aspect=fixed;" vertex="1" parent="1">
                    <mxGeometry x="560" y="90" width="80" height="80" as="geometry"/>
                </mxCell>
                <mxCell id="T2gZc5KsML9cMAAnWxb7-8" value="" style="whiteSpace=wrap;html=1;aspect=fixed;" vertex="1" parent="1">
                    <mxGeometry x="680" y="90" width="80" height="80" as="geometry"/>
                </mxCell>
                <mxCell id="T2gZc5KsML9cMAAnWxb7-9" value="vOTE" style="text;html=1;align=center;verticalAlign=middle;whiteSpace=wrap;rounded=0;" vertex="1" parent="1">
                    <mxGeometry x="310" y="140" width="60" height="30" as="geometry"/>
                </mxCell>
                <mxCell id="T2gZc5KsML9cMAAnWxb7-11" value="" style="rounded=0;whiteSpace=wrap;html=1;" vertex="1" parent="1">
                    <mxGeometry x="300" y="220" width="280" height="160" as="geometry"/>
                </mxCell>
                <mxCell id="T2gZc5KsML9cMAAnWxb7-12" value="" style="rounded=0;whiteSpace=wrap;html=1;" vertex="1" parent="1">
                    <mxGeometry x="620" y="220" width="300" height="160" as="geometry"/>
                </mxCell>
                <mxCell id="T2gZc5KsML9cMAAnWxb7-13" value="" style="whiteSpace=wrap;html=1;aspect=fixed;" vertex="1" parent="1">
                    <mxGeometry x="810" y="90" width="80" height="80" as="geometry"/>
                </mxCell>
                <mxCell id="T2gZc5KsML9cMAAnWxb7-18" value="CANDIDATES" style="text;html=1;align=center;verticalAlign=middle;whiteSpace=wrap;rounded=0;" vertex="1" parent="1">
                    <mxGeometry x="100" y="130" width="110" height="30" as="geometry"/>
                </mxCell>
                <mxCell id="T2gZc5KsML9cMAAnWxb7-19" value="VOTERS" style="text;html=1;align=center;verticalAlign=middle;whiteSpace=wrap;rounded=0;" vertex="1" parent="1">
                    <mxGeometry x="90" y="170" width="110" height="30" as="geometry"/>
                </mxCell>
                <mxCell id="T2gZc5KsML9cMAAnWxb7-20" value="&lt;h1 style=&quot;margin-top: 0px;&quot;&gt;&lt;span style=&quot;color: rgb(63, 63, 63); background-color: transparent;&quot;&gt;DASHBOARD&lt;/span&gt;&lt;/h1&gt;" style="text;html=1;whiteSpace=wrap;overflow=hidden;rounded=0;" vertex="1" parent="1">
                    <mxGeometry x="55" y="80" width="180" height="50" as="geometry"/>
                </mxCell>
                <mxCell id="T2gZc5KsML9cMAAnWxb7-21" value="" style="rounded=0;whiteSpace=wrap;html=1;" vertex="1" parent="1">
                    <mxGeometry x="40" y="540" width="990" height="480" as="geometry"/>
                </mxCell>
                <mxCell id="T2gZc5KsML9cMAAnWxb7-22" value="" style="rounded=0;whiteSpace=wrap;html=1;" vertex="1" parent="1">
                    <mxGeometry x="40" y="540" width="220" height="480" as="geometry"/>
                </mxCell>
                <mxCell id="T2gZc5KsML9cMAAnWxb7-23" value="&lt;h1 style=&quot;margin-top: 0px;&quot;&gt;&lt;span style=&quot;color: rgb(63, 63, 63); background-color: transparent;&quot;&gt;CANDIDATES&lt;/span&gt;&lt;/h1&gt;" style="text;html=1;whiteSpace=wrap;overflow=hidden;rounded=0;" vertex="1" parent="1">
                    <mxGeometry x="60" y="640" width="180" height="50" as="geometry"/>
                </mxCell>
                <mxCell id="T2gZc5KsML9cMAAnWxb7-24" value="&lt;h1 style=&quot;margin-top: 0px;&quot;&gt;KIU GUILD PRESIDENT ELECTIONS 2025&lt;/h1&gt;&lt;p&gt;&lt;br&gt;&lt;/p&gt;" style="text;html=1;whiteSpace=wrap;overflow=hidden;rounded=0;" vertex="1" parent="1">
                    <mxGeometry x="330" y="580" width="580" height="50" as="geometry"/>
                </mxCell>
                <mxCell id="T2gZc5KsML9cMAAnWxb7-25" value="" style="whiteSpace=wrap;html=1;aspect=fixed;" vertex="1" parent="1">
                    <mxGeometry x="350" y="680" width="80" height="80" as="geometry"/>
                </mxCell>
                <mxCell id="T2gZc5KsML9cMAAnWxb7-28" value="" style="whiteSpace=wrap;html=1;aspect=fixed;" vertex="1" parent="1">
                    <mxGeometry x="470" y="680" width="80" height="80" as="geometry"/>
                </mxCell>
                <mxCell id="T2gZc5KsML9cMAAnWxb7-29" value="" style="whiteSpace=wrap;html=1;aspect=fixed;" vertex="1" parent="1">
                    <mxGeometry x="360" y="790" width="80" height="80" as="geometry"/>
                </mxCell>
                <mxCell id="T2gZc5KsML9cMAAnWxb7-30" value="" style="whiteSpace=wrap;html=1;aspect=fixed;" vertex="1" parent="1">
                    <mxGeometry x="480" y="790" width="80" height="80" as="geometry"/>
                </mxCell>
                <mxCell id="T2gZc5KsML9cMAAnWxb7-31" value="" style="whiteSpace=wrap;html=1;aspect=fixed;" vertex="1" parent="1">
                    <mxGeometry x="610" y="680" width="80" height="80" as="geometry"/>
                </mxCell>
                <mxCell id="T2gZc5KsML9cMAAnWxb7-32" value="" style="whiteSpace=wrap;html=1;aspect=fixed;" vertex="1" parent="1">
                    <mxGeometry x="610" y="790" width="80" height="80" as="geometry"/>
                </mxCell>
                <mxCell id="T2gZc5KsML9cMAAnWxb7-33" value="" style="rounded=0;whiteSpace=wrap;html=1;" vertex="1" parent="1">
                    <mxGeometry x="750" y="640" width="250" height="350" as="geometry"/>
                </mxCell>
                <mxCell id="T2gZc5KsML9cMAAnWxb7-34" value="" style="ellipse;whiteSpace=wrap;html=1;aspect=fixed;" vertex="1" parent="1">
                    <mxGeometry x="835" y="660" width="80" height="80" as="geometry"/>
                </mxCell>
                <mxCell id="T2gZc5KsML9cMAAnWxb7-36" value="&lt;h1 style=&quot;margin-top: 0px;&quot;&gt;NAME&lt;/h1&gt;&lt;p&gt;REG NO&lt;/p&gt;&lt;p&gt;COURSE&lt;/p&gt;&lt;p&gt;FACULTY&lt;/p&gt;" style="text;html=1;whiteSpace=wrap;overflow=hidden;rounded=0;" vertex="1" parent="1">
                    <mxGeometry x="790" y="755" width="180" height="145" as="geometry"/>
                </mxCell>
                <mxCell id="T2gZc5KsML9cMAAnWxb7-37" value="SAVE" style="rounded=1;whiteSpace=wrap;html=1;" vertex="1" parent="1">
                    <mxGeometry x="815" y="940" width="120" height="30" as="geometry"/>
                </mxCell>
                <mxCell id="T2gZc5KsML9cMAAnWxb7-38" value="DDASSHBOARDD" style="text;html=1;align=center;verticalAlign=middle;whiteSpace=wrap;rounded=0;" vertex="1" parent="1">
                    <mxGeometry x="95" y="620" width="110" height="30" as="geometry"/>
                </mxCell>
                <mxCell id="T2gZc5KsML9cMAAnWxb7-39" value="VOTERS" style="text;html=1;align=center;verticalAlign=middle;whiteSpace=wrap;rounded=0;" vertex="1" parent="1">
                    <mxGeometry x="100" y="680" width="110" height="30" as="geometry"/>
                </mxCell>
                <mxCell id="T2gZc5KsML9cMAAnWxb7-40" value="" style="rounded=0;whiteSpace=wrap;html=1;" vertex="1" parent="1">
                    <mxGeometry x="40" y="1080" width="1050" height="490" as="geometry"/>
                </mxCell>
                <mxCell id="T2gZc5KsML9cMAAnWxb7-41" value="" style="rounded=0;whiteSpace=wrap;html=1;" vertex="1" parent="1">
                    <mxGeometry x="40" y="1080" width="250" height="490" as="geometry"/>
                </mxCell>
                <mxCell id="T2gZc5KsML9cMAAnWxb7-42" value="&lt;h1 style=&quot;margin-top: 0px;&quot;&gt;VOTTERS&lt;/h1&gt;&lt;p&gt;&lt;br&gt;&lt;/p&gt;" style="text;html=1;whiteSpace=wrap;overflow=hidden;rounded=0;" vertex="1" parent="1">
                    <mxGeometry x="80" y="1210" width="180" height="120" as="geometry"/>
                </mxCell>
                <mxCell id="T2gZc5KsML9cMAAnWxb7-44" value="CANDIDATES" style="text;html=1;align=center;verticalAlign=middle;whiteSpace=wrap;rounded=0;" vertex="1" parent="1">
                    <mxGeometry x="120" y="1170" width="60" height="30" as="geometry"/>
                </mxCell>
                <mxCell id="T2gZc5KsML9cMAAnWxb7-45" value="DASHBOAARD" style="text;html=1;align=center;verticalAlign=middle;whiteSpace=wrap;rounded=0;" vertex="1" parent="1">
                    <mxGeometry x="125" y="1140" width="60" height="30" as="geometry"/>
                </mxCell>
                <mxCell id="T2gZc5KsML9cMAAnWxb7-46" value="&lt;h1 style=&quot;margin-top: 0px;&quot;&gt;KIU GUILD PRESIDENT ELECTIONS 2025&lt;/h1&gt;&lt;p&gt;&lt;br&gt;&lt;/p&gt;" style="text;html=1;whiteSpace=wrap;overflow=hidden;rounded=0;" vertex="1" parent="1">
                    <mxGeometry x="410" y="1110" width="580" height="50" as="geometry"/>
                </mxCell>
                <mxCell id="T2gZc5KsML9cMAAnWxb7-49" value="" style="rounded=0;whiteSpace=wrap;html=1;" vertex="1" parent="1">
                    <mxGeometry x="340" y="1200" width="710" height="340" as="geometry"/>
                </mxCell>
                <mxCell id="T2gZc5KsML9cMAAnWxb7-50" value="" style="rounded=0;whiteSpace=wrap;html=1;" vertex="1" parent="1">
                    <mxGeometry x="350" y="1215" width="680" height="60" as="geometry"/>
                </mxCell>
                <mxCell id="T2gZc5KsML9cMAAnWxb7-51" value="" style="rounded=0;whiteSpace=wrap;html=1;" vertex="1" parent="1">
                    <mxGeometry x="350" y="1290" width="680" height="60" as="geometry"/>
                </mxCell>
                <mxCell id="T2gZc5KsML9cMAAnWxb7-52" value="" style="rounded=0;whiteSpace=wrap;html=1;" vertex="1" parent="1">
                    <mxGeometry x="355" y="1370" width="680" height="60" as="geometry"/>
                </mxCell>
                <mxCell id="T2gZc5KsML9cMAAnWxb7-53" value="" style="rounded=0;whiteSpace=wrap;html=1;" vertex="1" parent="1">
                    <mxGeometry x="350" y="1450" width="680" height="60" as="geometry"/>
                </mxCell>
            </root>
        </mxGraphModel>
    </diagram>
</mxfile>